<svg width="114" height="30" viewBox="0 0 114 30" fill="none" xmlns="http://www.w3.org/2000/svg">
<path d="M49.5732 8.44531L55.9658 11.5703L54.5957 12.2393C55.6672 13.5052 56.5969 14.8173 57.3965 16.1318C59.4795 19.5564 60.7051 22.9773 61.4092 25.5391C61.7613 26.8203 61.9843 27.8899 62.1191 28.6406C62.1865 29.0159 62.232 29.3133 62.2607 29.5166C62.275 29.6176 62.2853 29.6964 62.292 29.75C62.2953 29.7766 62.2972 29.7983 62.2988 29.8125C62.2996 29.8192 62.3004 29.8253 62.3008 29.8291C62.301 29.8304 62.3017 29.8321 62.3018 29.833V29.835C62.2987 29.8357 62.2607 29.8403 61.8047 29.8896C61.3538 29.9384 61.3115 29.9429 61.3076 29.9434V29.9404C61.3073 29.9379 61.3063 29.9331 61.3057 29.9277C61.3043 29.9162 61.3027 29.8977 61.2998 29.874C61.2938 29.8258 61.284 29.7519 61.2705 29.6562C61.2434 29.4644 61.1998 29.1797 61.1348 28.8174C61.0045 28.0922 60.7875 27.0522 60.4443 25.8037C59.7573 23.3041 58.5639 19.9753 56.542 16.6514C55.7277 15.3127 54.7756 13.9761 53.6699 12.6924L49.5732 14.6953L47.207 23.1406L44.8418 14.6953L38.4492 11.5703L44.8418 8.44531L47.207 0L49.5732 8.44531ZM31.8809 2.39355C36.9657 2.39359 41.2138 3.33924 44.7598 4.87891L44.4873 5.85156C41.0333 4.33048 36.8783 3.39359 31.8809 3.39355C17.801 3.39361 10.104 10.0345 5.90527 16.6592C3.79956 19.9818 2.56978 23.3088 1.86719 25.8066C1.51623 27.0544 1.29782 28.0939 1.16699 28.8184C1.10171 29.1799 1.05812 29.4637 1.03125 29.6553C1.01786 29.7507 1.00783 29.8249 1.00195 29.873C0.999137 29.8962 0.997386 29.9144 0.996094 29.9258C0.995539 29.931 0.995382 29.936 0.995117 29.9385C0.994872 29.9395 0.994278 29.941 0.994141 29.9414C0.991428 29.9411 0.955608 29.9378 0.49707 29.8896C0.0495064 29.8426 0.00442044 29.8369 0 29.8359V29.835C0.000133302 29.8339 0.000715688 29.8318 0.000976562 29.8301C0.00137872 29.8263 0.00124564 29.8202 0.00195312 29.8135C0.00357167 29.7992 0.00651356 29.7776 0.00976562 29.751C0.0163392 29.6972 0.0268136 29.6179 0.0410156 29.5166C0.0695892 29.3129 0.114843 29.016 0.182617 28.6406C0.318327 27.8891 0.5446 26.8185 0.905273 25.5361C1.62636 22.9726 2.88951 19.5498 5.06055 16.124C9.41667 9.25097 17.4126 2.39361 31.8809 2.39355ZM105.473 17.2354C105.473 17.7806 105.592 18.2663 105.83 18.6924C106.073 19.1184 106.414 19.4534 106.853 19.6963C107.291 19.9349 107.812 20.0537 108.413 20.0537C109.014 20.0536 109.534 19.9349 109.973 19.6963C110.416 19.4534 110.757 19.1185 110.995 18.6924C111.234 18.2663 111.353 17.7807 111.353 17.2354V8.88086H113.725V17.4336C113.725 18.371 113.503 19.1956 113.06 19.9072C112.621 20.6188 112.003 21.1747 111.206 21.5752C110.409 21.9714 109.478 22.1699 108.413 22.1699C107.344 22.1699 106.41 21.9714 105.613 21.5752C104.816 21.1746 104.198 20.6189 103.759 19.9072C103.32 19.1957 103.101 18.371 103.101 17.4336V8.88086H105.473V17.2354ZM70.3809 18.3662H70.5352L74.4209 8.88086H77.3232V21.9717H75.0479V12.9785H74.9258L71.3086 21.9336H69.6074L65.9902 12.959H65.8682V21.9717H63.5928V8.88086H66.4951L70.3809 18.3662ZM88.0596 10.8691H81.917V14.4229H87.6182V16.4102H81.917V19.9834H88.1104V21.9717H79.5459V8.88086H88.0596V10.8691ZM98.4033 17.8037H98.5186V8.88086H100.877V21.9717H98.7676L92.5996 13.0547H92.4902V21.9717H90.1191V8.88086H92.2412L98.4033 17.8037Z" fill="black"/>
</svg>
